<?xml version="1.0" encoding="utf-8"?>
<!-- Generator: Adobe Illustrator 16.0.0, SVG Export Plug-In . SVG Version: 6.00 Build 0)  -->
<!DOCTYPE svg PUBLIC "-//W3C//DTD SVG 1.1//EN" "http://www.w3.org/Graphics/SVG/1.1/DTD/svg11.dtd">
<svg version="1.1" id="_x31__x5F_300x240" xmlns="http://www.w3.org/2000/svg" xmlns:xlink="http://www.w3.org/1999/xlink" x="0px"
	 y="0px" width="300px" height="240px" viewBox="0 0 300 240" style="enable-background:new 0 0 300 240;" xml:space="preserve">
<style type="text/css">
<![CDATA[
	.st0{fill:#231F20;}
]]>
</style>
<g>
	<g>
		<path class="st0" d="M226.6,64c0-0.4-0.3-0.7-0.7-0.7h-1.7c-0.3,0-0.6,0.3-0.6,0.7v50.5c0,0.3,0.3,0.6,0.6,0.6h15.3
			c0.3,0,0.6-0.3,0.6-0.6V113c0-0.3-0.3-0.7-0.6-0.7h-12.7c-0.1,0-0.2-0.1-0.2-0.2V64z M186,114.5V64c0-0.4-0.3-0.7-0.6-0.7h-1.7
			c-0.3,0-0.6,0.3-0.6,0.7v50.5c0,0.4,0.3,0.6,0.6,0.6h1.7C185.7,115.1,186,114.8,186,114.5 M118.8,114.5V64c0-0.4-0.3-0.7-0.6-0.7
			h-1.7c-0.3,0-0.6,0.3-0.6,0.7v50.5c0,0.4,0.3,0.6,0.6,0.6h1.7C118.5,115.1,118.8,114.8,118.8,114.5 M51.5,86.6
			c-0.3,0-0.7,0.3-0.7,0.6v27.3c0,0.3,0.3,0.6,0.7,0.6h17.8c0.3,0,0.6-0.3,0.6-0.6V113c0-0.3-0.3-0.7-0.6-0.7H54
			c-0.1,0-0.2-0.1-0.2-0.2V89.6c0-0.1,0.1-0.2,0.2-0.2h13.2c0.3,0,0.7-0.3,0.7-0.7v-1.5c0-0.3-0.3-0.6-0.7-0.6H51.5z M39.5,114.5V64
			c0-0.4-0.3-0.7-0.6-0.7h-1.7c-0.3,0-0.6,0.3-0.6,0.7v50.5c0,0.4,0.3,0.6,0.6,0.6h1.7C39.3,115.1,39.5,114.8,39.5,114.5
			 M22.3,114.4c0,0.4,0.3,0.7,0.6,0.7h1.7c0.3,0,0.6-0.3,0.6-0.6V64c0-0.4-0.3-0.7-0.6-0.7h-1.7c-0.3,0-0.6,0.3-0.6,0.7V114.4z"/>
		<path class="st0" d="M233,5.7c0-0.3-0.3-0.7-0.6-0.7h-7c-0.3,0-0.6,0.3-0.6,0.7v50.5c0,0.3,0.3,0.6,0.6,0.6h17.1
			c0.3,0,0.6-0.3,0.6-0.6v-6.8c0-0.3-0.3-0.6-0.6-0.6h-9.3c-0.1,0-0.3-0.1-0.3-0.3V5.7z M209,41.8h-2.5c-0.1,0-0.2-0.1-0.2-0.3
			l0.9-20.1c0-0.3,0.3-0.6,0.6-0.6c0.3,0,0.7,0.3,0.7,0.6l0.9,20.1C209.3,41.7,209.1,41.8,209,41.8 M217.5,56.8
			c0.3,0,0.7-0.3,0.7-0.6V56l-5.5-50.4c-0.1-0.3-0.3-0.6-0.6-0.6h-8.6c-0.3,0-0.6,0.3-0.6,0.6L197.4,56v0.1c0,0.3,0.3,0.6,0.6,0.6
			h6.9c0.3,0,0.6-0.3,0.6-0.6l0.4-7.2c0-0.1,0.1-0.2,0.3-0.2h3.3c0.1,0,0.2,0.1,0.2,0.2l0.4,7.2c0,0.3,0.3,0.6,0.7,0.6H217.5z
			 M190.8,5.7c0-0.3-0.3-0.7-0.6-0.7h-7c-0.3,0-0.6,0.3-0.6,0.7v41.7c0,1.1-0.9,1.9-1.9,1.9c-1.1,0-1.9-0.9-1.9-1.9V5.7
			c0-0.3-0.3-0.7-0.6-0.7h-7c-0.3,0-0.6,0.7-0.6,0.7V47c0,6.5,3.7,10.1,9.2,10.1c5.6,0,11-3.7,11-10.1V5.7z M145.3,44.7
			c-0.9,2.9-1.4,6.2-1.4,7.4l-0.8,4c0,0.4,0.3,0.7,0.7,0.7h18.7c0.4,0,0.7-0.3,0.7-0.7l0.8-6.7c0-0.3-0.3-0.6-0.7-0.6h-10.9
			c-0.1,0-0.3-0.1-0.3-0.3v-0.1l10.4-31.3c0.9-3,1.4-6.3,1.4-7.5v-4c0-0.4-0.3-0.7-0.7-0.7h-17.7c-0.3,0-0.6,0.3-0.6,0.7v6.7
			c0,0.3,0.3,0.6,0.6,0.6h9.9c0.1,0,0.3,0.1,0.3,0.3v0.1L145.3,44.7z M136.6,56.2l0.8-50.5c0-0.3-0.3-0.7-0.6-0.7h-7
			c-0.3,0-0.6,0.3-0.6,0.7l-0.8,50.5c0,0.3,0.3,0.6,0.6,0.6h7C136.3,56.8,136.6,56.5,136.6,56.2 M110.3,5h-6.5
			c-0.3,0-0.6,0.3-0.6,0.7l-0.7,21.5c0,0.3-0.3,0.6-0.6,0.6c-0.3,0-0.7-0.3-0.7-0.6l-0.7-21.5c0-0.3-0.3-0.7-0.6-0.7H93
			c-0.4,0-0.7,0.3-0.7,0.7l4.3,50.5c0,0.3,0.3,0.6,0.7,0.6h6.3c0.3,0,0.6-0.3,0.6-0.6c0.1-0.4,2.2-20.3,2.2-20.3
			c0-0.3,0.3-0.6,0.7-0.6c0.3,0,0.6,0.3,0.6,0.6c0,0,0.6,19.9,0.6,20.3c0,0.3,0.3,0.6,0.6,0.6h6.3c0.3,0,0.6-0.3,0.6-0.6l6-50.5
			c0-0.3-0.3-0.7-0.7-0.7h-6.9c-0.3,0-0.7,0.3-0.7,0.7l-0.7,21.5c0,0.3-0.3,0.6-0.6,0.6c-0.3,0-0.7-0.3-0.7-0.6l-0.7-21.5
			C110.9,5.4,110.6,5,110.3,5"/>
	</g>
	<path class="st0" d="M276.5,5c-0.3,0-0.7,0.3-0.7,0.7v50.5c0,0.3,0.3,0.6,0.7,0.6h17.8c0.3,0,0.6-0.3,0.6-0.6v-6.8
		c0-0.3-0.3-0.6-0.6-0.6h-10c-0.1,0-0.2-0.1-0.2-0.3V34c0-0.1,0.1-0.3,0.2-0.3h7.9c0.3,0,0.6-0.3,0.6-0.6v-6.7
		c0-0.4-0.3-0.7-0.6-0.7h-7.9c-0.1,0-0.2-0.1-0.2-0.2V13.3c0-0.1,0.1-0.2,0.2-0.2h10c0.3,0,0.6-0.3,0.6-0.7V5.7
		c0-0.3-0.3-0.7-0.6-0.7H276.5z M256.6,5.6C256.5,5.3,256.3,5,256,5h-7c-0.3,0-0.6,0.3-0.6,0.7v50.5c0,0.3,0.3,0.6,0.6,0.6h7
		c0.3,0,0.6-0.3,0.6-0.6V36.8c0-0.1,0.1-0.3,0.3-0.3c0.1,0,0.2,0.1,0.2,0.3l3.3,19.5c0.1,0.3,0.3,0.5,0.7,0.5h6.9
		c0.4,0,0.7-0.3,0.7-0.6V5.7c0-0.3-0.3-0.7-0.7-0.7h-6.9c-0.3,0-0.7,0.3-0.7,0.7v22.1c0,0.1-0.1,0.2-0.2,0.2c-0.1,0-0.3-0.1-0.3-0.2
		L256.6,5.6z"/>
	<path class="st0" d="M17.6,92.6L8.1,63.9c-0.1-0.3-0.3-0.5-0.6-0.5H5.6C5.3,63.4,5,63.6,5,64v50.5c0,0.3,0.3,0.6,0.6,0.6h1.7
		c0.3,0,0.6-0.3,0.6-0.6V73.4c0-0.1,0.1-0.3,0.3-0.3c0.1,0,0.3,0.1,0.3,0.3l6.6,20.1c0.1,0.3,0.4,0.5,0.8,0.4l1.4-0.5
		C17.6,93.3,17.8,92.9,17.6,92.6z"/>
	<path class="st0" d="M51.5,66.2h17.8c0.4,0,0.7-0.3,0.7-0.6V64c0-0.3-0.3-0.6-0.7-0.6H51.5c-0.4,0-0.6,0.3-0.6,0.6v1.6
		C50.9,65.9,51.1,66.2,51.5,66.2z"/>
	<path class="st0" d="M96.1,114.5c0.1,0.3,0.3,0.6,0.6,0.6h3.1c0.3,0,0.6-0.3,0.6-0.6l6.5-50.5c0-0.4-0.3-0.7-0.7-0.7h-2.1
		c-0.3,0-0.5,0.3-0.6,0.7l-5,42.6c0,0.1-0.1,0.3-0.3,0.3c-0.1,0-0.3-0.1-0.3-0.3L93.2,64c0-0.4-0.3-0.7-0.6-0.7h-1.8
		c-0.3,0-0.7,0.2-0.6,0.7C90.2,64,96,114.1,96.1,114.5z"/>
	<path class="st0" d="M78.1,64c-0.1-0.4-0.3-0.7-0.6-0.7h-2.1c-0.4,0-0.7,0.3-0.7,0.7l6.5,50.5c0,0.3,0.3,0.6,0.6,0.6h1.6
		c0.3,0,0.6-0.3,0.6-0.6L78.1,64z"/>
	<path class="st0" d="M156,115.1h18.4c0.4,0,0.7-0.3,0.7-0.6v-1.6c0-0.3-0.3-0.6-0.7-0.6H156c-0.4,0-0.6,0.3-0.6,0.6v1.6
		C155.4,114.8,155.6,115.1,156,115.1z"/>
	<path class="st0" d="M164.1,96.4l10.3-27.6c0.3-1.1,0.7-2.6,0.7-4.2V64c0-0.4-0.3-0.7-0.7-0.7h-17.7c-0.3,0-0.6,0.3-0.6,0.7v1.5
		c0,0.3,0.3,0.6,0.6,0.6h15.1c0.2,0,0.3,0.1,0.3,0.3l-10.7,28.7c-0.1,0.3,0,0.7,0.3,0.8l1.6,0.7C163.6,96.8,163.9,96.7,164.1,96.4z"
		/>
	<path class="st0" d="M209.7,101.8l-12.5,0c-0.4,0-0.6,0.1-0.7,0.6l-0.3,1.6c-0.1,0.5,0.3,0.6,0.6,0.6h13.3c0.1,0,0.3,0.1,0.3,0.2
		l1.4,9.7c0.1,0.3,0.3,0.6,0.6,0.6h2.3c0.3,0,0.7-0.3,0.6-0.7l-8.1-50.5c-0.1-0.3-0.3-0.5-0.6-0.5H205c-0.3,0-0.7,0.1-0.7,0.5
		l5.6,37.9C209.9,101.8,209.7,101.8,209.7,101.8"/>
	<path class="st0" d="M263.4,114.4c0,0.4,0.2,0.7,0.6,0.7h1.7c0.3,0,0.6-0.3,0.6-0.6V64c0-0.4-0.3-0.7-0.6-0.7H264
		c-0.3,0-0.6,0.3-0.6,0.7V114.4z"/>
	<path class="st0" d="M256.7,86.3l-7.5-22.4c-0.1-0.3-0.3-0.5-0.6-0.5h-1.9c-0.3,0-0.6,0.3-0.6,0.7v50.5c0,0.3,0.3,0.6,0.6,0.6h1.7
		c0.3,0,0.6-0.3,0.6-0.6V73.4c0-0.1,0.1-0.3,0.3-0.3c0.1,0,0.3,0.1,0.3,0.3l4.6,13.7c0.1,0.3,0.4,0.5,0.7,0.4l1.4-0.5
		C256.6,87,256.8,86.6,256.7,86.3z"/>
	<path class="st0" d="M276.5,66.2h17.8c0.4,0,0.7-0.3,0.7-0.6V64c0-0.3-0.3-0.6-0.7-0.6h-17.8c-0.4,0-0.6,0.3-0.6,0.6v1.6
		C275.9,65.9,276.2,66.2,276.5,66.2z"/>
	<path class="st0" d="M276.5,115.1h17.8c0.4,0,0.7-0.3,0.7-0.6v-1.6c0-0.3-0.3-0.6-0.7-0.6h-17.8c-0.4,0-0.6,0.3-0.6,0.6v1.6
		C275.9,114.8,276.2,115.1,276.5,115.1z"/>
	<path class="st0" d="M276.5,89.4h15.7c0.4,0,0.7-0.3,0.7-0.6v-1.6c0-0.3-0.3-0.6-0.7-0.6h-15.7c-0.4,0-0.6,0.3-0.6,0.6v1.6
		C275.9,89.1,276.2,89.4,276.5,89.4z"/>
	<path class="st0" d="M147.1,102c0,7.4-2.9,13.1-14.2,13.1h-5.5c-0.4,0-0.6-0.3-0.6-0.6v-1.6c0-0.3,0.1-0.6,0.5-0.6l6.4,0
		c6.9,0,10.4-3.2,10.4-9.8V75.9c0-6.5-3.6-9.7-10.4-9.7l-6.4,0c-0.4,0-0.5-0.3-0.5-0.6V64c0-0.3,0.2-0.6,0.6-0.6h5.5
		c11.3,0,14.2,5.7,14.2,13.1V102z"/>
	<g>
		<g>
			<path class="st0" d="M78.3,134.4c1.4,0.5,2.2,1.7,2.2,3.5v2.8c0,2.6-1.7,3.9-4.1,3.9h-1c-2.4,0-4.1-1.3-4.1-3.9v-2.9
				c0-0.1,0.1-0.2,0.2-0.2h0.7c0.1,0,0.2,0.1,0.2,0.2v3.3c0,1.7,1.2,2.4,2.6,2.4h1.7c1.4,0,2.6-0.7,2.6-2.4v-3.7
				c0-1.1-0.6-1.8-1.4-2l-4.5-1.5c-1.4-0.4-2.2-1.7-2.2-3.5v-2c0-2.6,1.7-3.9,4.1-3.9h1c2.4,0,4.1,1.3,4.1,3.9v2.2
				c0,0.1-0.1,0.2-0.2,0.2h-0.7c-0.1,0-0.2-0.1-0.2-0.2V128c0-1.7-1.2-2.4-2.6-2.4h-1.7c-1.4,0-2.6,0.7-2.6,2.4v2.9
				c0,1.1,0.6,1.8,1.4,2L78.3,134.4z"/>
			<path class="st0" d="M91.9,124.9v0.4c0,0.6-0.1,1.1-0.3,1.6l-7.5,16.3c0,0,0,0.1,0,0.1c0,0.1,0,0.1,0.1,0.1h7.5
				c0.1,0,0.2,0.1,0.2,0.2v0.6c0,0.1-0.1,0.2-0.2,0.2h-8.5c-0.1,0-0.2-0.1-0.2-0.2v-0.4c0-0.4,0-0.8,0.3-1.4l7.6-16.5
				c0,0,0-0.1,0-0.1c0,0,0-0.1-0.1-0.1h-7.2c-0.1,0-0.2-0.1-0.2-0.2v-0.6c0-0.1,0.1-0.2,0.2-0.2h8.1
				C91.8,124.7,91.9,124.8,91.9,124.9z"/>
			<path class="st0" d="M102.2,124.9v0.6c0,0.1-0.1,0.2-0.2,0.2h-3.7c-0.1,0-0.1,0-0.1,0.1v18.4c0,0.1-0.1,0.2-0.2,0.2h-0.7
				c-0.1,0-0.2-0.1-0.2-0.2v-18.4c0-0.1,0-0.1-0.1-0.1h-3.7c-0.1,0-0.2-0.1-0.2-0.2v-0.6c0-0.1,0.1-0.2,0.2-0.2h8.8
				C102.1,124.7,102.2,124.8,102.2,124.9z"/>
			<path class="st0" d="M106.4,141.2c0,1.7,1.2,2.4,2.6,2.4h1.7c1.4,0,2.6-0.7,2.6-2.4v-16.3c0-0.1,0.1-0.2,0.2-0.2h0.7
				c0.1,0,0.2,0.1,0.2,0.2v15.8c0,2.6-1.7,3.9-4.1,3.9h-1c-2.4,0-4.1-1.3-4.1-3.9v-15.8c0-0.1,0.1-0.2,0.2-0.2h0.7
				c0.1,0,0.2,0.1,0.2,0.2V141.2z"/>
			<path class="st0" d="M129.3,144.3c0,0.1-0.1,0.2-0.3,0.2h-0.9c-0.1,0-0.2-0.1-0.2-0.2l-6.7-9.2c0,0-0.1-0.1-0.1-0.1
				c-0.1,0-0.1,0-0.1,0.1v9.2c0,0.1-0.1,0.2-0.2,0.2h-0.7c-0.1,0-0.2-0.1-0.2-0.2v-19.3c0-0.1,0.1-0.2,0.2-0.2h0.7
				c0.1,0,0.2,0.1,0.2,0.2v7.7c0,0,0,0.1,0.1,0.1c0,0,0.1,0,0.1,0l6.4-7.8c0.1-0.1,0.2-0.2,0.3-0.2h0.8c0.2,0,0.3,0.1,0.3,0.2
				c0,0,0,0.1-0.1,0.2l-7.2,8.6c0,0,0,0.1,0,0.1c0,0,0,0.1,0,0.1l7.5,10.1C129.3,144.1,129.3,144.2,129.3,144.3z"/>
			<path class="st0" d="M133.3,144.5h-0.7c-0.1,0-0.2-0.1-0.2-0.2v-19.3c0-0.1,0.1-0.2,0.2-0.2h0.7c0.1,0,0.2,0.1,0.2,0.2v19.3
				C133.5,144.4,133.4,144.5,133.3,144.5z"/>
			<path class="st0" d="M151.1,124.7c0.1,0,0.2,0.1,0.2,0.2l2,18c0,0.1,0,0.1,0.1,0.1c0.1,0,0.1,0,0.1-0.1l2.4-18
				c0-0.1,0.1-0.2,0.3-0.2h0.8c0.2,0,0.3,0.1,0.3,0.3c0,0.2-2.8,19.3-2.8,19.3c0,0.1-0.1,0.2-0.2,0.2h-1.4c-0.1,0-0.2-0.1-0.2-0.2
				c-0.7-4.4-1.1-10-2.1-17.6c0-0.1,0-0.1-0.1-0.1c0,0-0.1,0-0.1,0.1c-1,7.6-1.4,13.3-2.1,17.6c0,0.1-0.1,0.2-0.2,0.2h-1.4
				c-0.1,0-0.2-0.1-0.3-0.2c0,0-2.8-19.1-2.8-19.3c0-0.2,0.1-0.3,0.3-0.3h0.8c0.1,0,0.3,0.1,0.3,0.2l2.4,18c0,0.1,0,0.1,0.1,0.1
				c0.1,0,0.1,0,0.1-0.1l2-18c0-0.2,0.1-0.2,0.2-0.2H151.1z"/>
			<path class="st0" d="M161.7,144.5H161c-0.1,0-0.2-0.1-0.2-0.2v-19.3c0-0.1,0.1-0.2,0.2-0.2h0.7c0.1,0,0.2,0.1,0.2,0.2v19.3
				C161.9,144.4,161.8,144.5,161.7,144.5z"/>
			<path class="st0" d="M174.2,124.9v0.4c0,0.6-0.1,1.1-0.3,1.6l-7.5,16.3c0,0,0,0.1,0,0.1c0,0.1,0,0.1,0.1,0.1h7.5
				c0.1,0,0.2,0.1,0.2,0.2v0.6c0,0.1-0.1,0.2-0.2,0.2h-8.5c-0.1,0-0.2-0.1-0.2-0.2v-0.4c0-0.4,0-0.8,0.3-1.4l7.6-16.5
				c0,0,0-0.1,0-0.1c0,0,0-0.1-0.1-0.1h-7.2c-0.1,0-0.2-0.1-0.2-0.2v-0.6c0-0.1,0.1-0.2,0.2-0.2h8.1
				C174.1,124.7,174.2,124.8,174.2,124.9z"/>
			<path class="st0" d="M178.7,141.2c0,1.7,1.2,2.4,2.6,2.4h1.7c1.4,0,2.6-0.7,2.6-2.4v-16.3c0-0.1,0.1-0.2,0.2-0.2h0.7
				c0.1,0,0.2,0.1,0.2,0.2v15.8c0,2.6-1.7,3.9-4.1,3.9h-1c-2.4,0-4.1-1.3-4.1-3.9v-15.8c0-0.1,0.1-0.2,0.2-0.2h0.7
				c0.1,0,0.2,0.1,0.2,0.2V141.2z"/>
			<path class="st0" d="M192.7,140.5c-0.1,0-0.2,0-0.2,0.1l-0.7,3.7c0,0.1-0.1,0.2-0.3,0.2h-0.7c-0.2,0-0.3-0.1-0.2-0.3l3.8-19.3
				c0-0.1,0.1-0.2,0.3-0.2h1.5c0.1,0,0.2,0.1,0.3,0.2l3.8,19.3c0,0.1,0,0.3-0.2,0.3h-0.7c-0.2,0-0.3-0.1-0.3-0.2l-0.7-3.7
				c0-0.1-0.1-0.1-0.2-0.1H192.7z M197.9,139.4c0.1,0,0.2,0,0.1-0.1l-2.5-13.2c0-0.1-0.1-0.1-0.1-0.1s-0.1,0-0.1,0.1l-2.5,13.2
				c0,0.1,0,0.1,0.1,0.1H197.9z"/>
			<path class="st0" d="M204.3,144.5c-0.1,0-0.2-0.1-0.2-0.2v-19.3c0-0.1,0.1-0.2,0.2-0.2h0.7c0.1,0,0.2,0.1,0.2,0.2v18.3
				c0,0.1,0,0.1,0.1,0.1h7.2c0.1,0,0.2,0.1,0.2,0.2v0.6c0,0.1-0.1,0.2-0.2,0.2H204.3z"/>
			<path class="st0" d="M223,144.5c-0.1,0-0.2-0.1-0.2-0.2l-6.2-17.1c0-0.1,0-0.1-0.1-0.1c0,0-0.1,0-0.1,0.1v17.1
				c0,0.1-0.1,0.2-0.2,0.2h-0.7c-0.1,0-0.2-0.1-0.2-0.2v-19.3c0-0.1,0.1-0.2,0.2-0.2h1.1c0.1,0,0.2,0.1,0.3,0.2l6.2,17
				c0,0.1,0.1,0.1,0.1,0.1c0.1,0,0.1,0,0.1-0.1v-17c0-0.1,0.1-0.2,0.2-0.2h0.7c0.1,0,0.2,0.1,0.2,0.2v19.3c0,0.1-0.1,0.2-0.2,0.2
				H223z"/>
			<path class="st0" d="M230.9,125.9v7.5c0,0.1,0,0.1,0.1,0.1h6.3c0.1,0,0.2,0.1,0.2,0.2v0.6c0,0.1-0.1,0.2-0.2,0.2h-6.3
				c-0.1,0-0.1,0-0.1,0.1v8.5c0,0.1,0,0.1,0.1,0.1h7.2c0.1,0,0.2,0.1,0.2,0.2v0.6c0,0.1-0.1,0.2-0.3,0.2H230c-0.1,0-0.2-0.1-0.2-0.2
				v-19.3c0-0.1,0.1-0.2,0.2-0.2h8.2c0.1,0,0.2,0.1,0.2,0.2v0.6c0,0.1-0.1,0.2-0.2,0.2h-7.2C231,125.8,230.9,125.8,230.9,125.9z"/>
		</g>
		<g>
			<path class="st0" d="M146.8,154.8c0.1,0,0.2,0.1,0.2,0.2l2,18c0,0.1,0.1,0.1,0.1,0.1c0.1,0,0.1,0,0.1-0.1l2.4-18
				c0-0.1,0.1-0.2,0.3-0.2h0.8c0.2,0,0.3,0.1,0.3,0.3c0,0.2-2.8,19.3-2.8,19.3c0,0.1-0.1,0.2-0.2,0.2h-1.4c-0.1,0-0.2-0.1-0.2-0.2
				c-0.7-4.4-1.1-10-2.1-17.6c0-0.1-0.1-0.1-0.1-0.1c0,0-0.1,0-0.1,0.1c-1,7.6-1.4,13.3-2.1,17.6c0,0.1-0.1,0.2-0.2,0.2h-1.4
				c-0.1,0-0.2-0.1-0.3-0.2c0,0-2.8-19.1-2.8-19.3c0-0.2,0.1-0.3,0.3-0.3h0.8c0.1,0,0.3,0.1,0.3,0.2l2.4,18c0,0.1,0,0.1,0.1,0.1
				c0.1,0,0.1,0,0.1-0.1l2-18c0-0.2,0.1-0.2,0.2-0.2H146.8z"/>
			<path class="st0" d="M172.1,157.7v5.7c0,1.6-1.3,2.9-2.9,2.9h-5c-0.1,0-0.1,0.1-0.1,0.1v8c0,0.1-0.1,0.2-0.2,0.2h-0.7
				c-0.1,0-0.2-0.1-0.2-0.2V155c0-0.1,0.1-0.2,0.2-0.2h6C170.8,154.8,172.1,156.1,172.1,157.7z M171,158.3c0-1.7-0.7-2.5-2.1-2.5
				h-4.7c-0.1,0-0.1,0-0.1,0.1v9.1c0,0.1,0.1,0.1,0.1,0.1h4.7c1.4,0,2.1-0.8,2.1-2.5V158.3z"/>
			<path class="st0" d="M185,158.5v12.3c0,2.6-1.7,3.9-4.1,3.9h-1c-2.4,0-4.1-1.3-4.1-3.9v-12.3c0-2.6,1.7-3.9,4.1-3.9h1
				C183.3,154.7,185,156,185,158.5z M183.9,158.1c0-1.7-1.2-2.4-2.7-2.4h-1.6c-1.4,0-2.6,0.7-2.6,2.4v13.2c0,1.7,1.2,2.4,2.6,2.4
				h1.6c1.4,0,2.7-0.7,2.7-2.4V158.1z"/>
			<path class="st0" d="M190.6,174.6c-0.1,0-0.2-0.1-0.2-0.2V155c0-0.1,0.1-0.2,0.2-0.2h0.7c0.1,0,0.2,0.1,0.2,0.2v18.4
				c0,0.1,0,0.1,0.1,0.1h7.2c0.1,0,0.2,0.1,0.2,0.2v0.6c0,0.1-0.1,0.2-0.2,0.2H190.6z"/>
			<path class="st0" d="M208.3,164.5c1.4,0.5,2.2,1.7,2.2,3.6v2.8c0,2.6-1.7,3.9-4.1,3.9h-1c-2.4,0-4.1-1.3-4.1-3.9V168
				c0-0.1,0.1-0.2,0.2-0.2h0.7c0.1,0,0.2,0.1,0.2,0.2v3.3c0,1.7,1.2,2.4,2.6,2.4h1.7c1.4,0,2.6-0.7,2.6-2.4v-3.7
				c0-1.1-0.6-1.8-1.4-2l-4.5-1.5c-1.4-0.5-2.2-1.7-2.2-3.6v-2c0-2.6,1.7-3.9,4.1-3.9h1c2.4,0,4.1,1.3,4.1,3.9v2.2
				c0,0.1-0.1,0.2-0.2,0.2h-0.7c-0.1,0-0.2-0.1-0.2-0.2v-2.7c0-1.7-1.2-2.4-2.6-2.4H205c-1.4,0-2.6,0.7-2.6,2.4v2.9
				c0,1.1,0.6,1.8,1.4,2L208.3,164.5z"/>
			<path class="st0" d="M223.7,167.4c0-0.1,0.1-0.2,0.2-0.2h0.7c0.1,0,0.2,0.1,0.2,0.2v3.5c0,2.6-1.7,3.9-4.1,3.9h-1
				c-2.4,0-4.1-1.3-4.1-3.9v-12.3c0-2.6,1.7-3.9,4.1-3.9h1c2.4,0,4.1,1.3,4.1,3.9v2.5c0,0.1-0.1,0.2-0.2,0.2h-0.7
				c-0.1,0-0.2-0.1-0.2-0.2v-2.9c0-1.7-1.2-2.4-2.6-2.4h-1.6c-1.4,0-2.6,0.7-2.6,2.4v13.2c0,1.7,1.2,2.4,2.6,2.4h1.7
				c1.4,0,2.6-0.7,2.6-2.4V167.4z"/>
			<path class="st0" d="M230.8,156v7.6c0,0.1,0,0.1,0.1,0.1h6.3c0.1,0,0.2,0.1,0.2,0.2v0.6c0,0.1-0.1,0.2-0.2,0.2h-6.3
				c-0.1,0-0.1,0-0.1,0.1v8.5c0,0.1,0,0.1,0.1,0.1h7.2c0.1,0,0.2,0.1,0.2,0.2v0.6c0,0.1-0.1,0.2-0.3,0.2h-8.1
				c-0.1,0-0.2-0.1-0.2-0.2V155c0-0.1,0.1-0.2,0.2-0.2h8.2c0.1,0,0.2,0.1,0.2,0.2v0.6c0,0.1-0.1,0.2-0.2,0.2h-7.2
				C230.8,155.9,230.8,155.9,230.8,156z"/>
		</g>
		<g>
			<path class="st0" d="M137.4,194.7c1.4,0.5,2.2,1.7,2.2,3.5v2.8c0,2.6-1.7,3.9-4.1,3.9h-1c-2.4,0-4.1-1.3-4.1-3.9v-2.9
				c0-0.1,0.1-0.2,0.2-0.2h0.7c0.1,0,0.2,0.1,0.2,0.2v3.3c0,1.7,1.2,2.4,2.6,2.4h1.7c1.4,0,2.6-0.7,2.6-2.4v-3.7
				c0-1.1-0.6-1.8-1.4-2l-4.5-1.5c-1.4-0.5-2.2-1.7-2.2-3.6v-2c0-2.6,1.7-3.9,4.1-3.9h1c2.4,0,4.1,1.3,4.1,3.9v2.2
				c0,0.1-0.1,0.2-0.2,0.2h-0.7c-0.1,0-0.2-0.1-0.2-0.2v-2.7c0-1.7-1.2-2.4-2.6-2.4h-1.7c-1.4,0-2.6,0.7-2.6,2.4v2.9
				c0,1.1,0.6,1.8,1.4,2L137.4,194.7z"/>
			<path class="st0" d="M150.8,185.2v0.6c0,0.1-0.1,0.2-0.2,0.2h-3.7c-0.1,0-0.1,0-0.1,0.1v18.4c0,0.1-0.1,0.2-0.2,0.2h-0.7
				c-0.1,0-0.2-0.1-0.2-0.2v-18.4c0-0.1,0-0.1-0.1-0.1h-3.7c-0.1,0-0.2-0.1-0.2-0.2v-0.6c0-0.1,0.1-0.2,0.2-0.2h8.8
				C150.7,184.9,150.8,185,150.8,185.2z"/>
			<path class="st0" d="M153.4,200.7c-0.1,0-0.2,0-0.2,0.1l-0.7,3.7c0,0.1-0.1,0.2-0.3,0.2h-0.7c-0.2,0-0.3-0.1-0.2-0.3l3.8-19.3
				c0-0.1,0.1-0.2,0.3-0.2h1.5c0.2,0,0.2,0,0.3,0.2l3.8,19.3c0,0.1,0,0.3-0.2,0.3h-0.7c-0.2,0-0.3-0.1-0.3-0.2l-0.7-3.7
				c0-0.1-0.1-0.1-0.2-0.1H153.4z M158.6,199.6c0.1,0,0.2,0,0.1-0.1l-2.5-13.2c0-0.1-0.1-0.1-0.1-0.1c0,0-0.1,0-0.1,0.1l-2.5,13.2
				c0,0.1,0,0.1,0.1,0.1H158.6z"/>
			<path class="st0" d="M172.6,204.7c-0.1,0-0.2-0.1-0.2-0.2l-6.2-17.1c0-0.1,0-0.1-0.1-0.1c-0.1,0-0.1,0-0.1,0.1v17
				c0,0.1-0.1,0.2-0.2,0.2H165c-0.1,0-0.2-0.1-0.2-0.2v-19.3c0-0.1,0.1-0.2,0.2-0.2h1.1c0.1,0,0.2,0.1,0.3,0.2l6.2,17
				c0,0.1,0.1,0.1,0.1,0.1c0.1,0,0.1,0,0.1-0.1v-17c0-0.1,0.1-0.2,0.2-0.2h0.7c0.1,0,0.2,0.1,0.2,0.2v19.3c0,0.1-0.1,0.2-0.2,0.2
				H172.6z"/>
			<path class="st0" d="M178.3,206.4c0,0-0.1,0.1-0.2,0.1h-0.3c-0.1,0-0.2-0.1-0.2-0.2c0-0.1,0-0.1,0.1-0.2l0.6-1.2
				c0-0.1,0-0.2-0.1-0.2H178c-0.1,0-0.2-0.1-0.2-0.2v-1.8c0-0.1,0.1-0.2,0.2-0.2h0.7c0.1,0,0.2,0.1,0.2,0.2v1.4c0,0.4,0,0.7-0.2,1.2
				L178.3,206.4z"/>
			<path class="st0" d="M197,197.2c0-1.6-0.7-2.3-2-2.3h-4.8c-0.1,0-0.1,0.1-0.1,0.1v9.5c0,0.1-0.1,0.2-0.2,0.2h-0.7
				c-0.1,0-0.2-0.1-0.2-0.2v-19.3c0-0.1,0.1-0.2,0.2-0.2h6.1c1.6,0,2.9,1.3,2.9,2.9v3.9c0,1.1-0.5,1.9-1.2,2.4
				c-0.1,0-0.1,0.1-0.1,0.2c0,0.1,0,0.1,0.1,0.2c0.8,0.5,1.2,1.4,1.2,2.4v1.9v5.6c0,0.1-0.1,0.2-0.2,0.2h-0.7
				c-0.1,0-0.2-0.1-0.2-0.2V197.2z M195,193.8c1.3,0,2-0.7,2-2.3v-3.2c0-1.6-0.7-2.3-2-2.3h-4.8c-0.1,0-0.1,0-0.1,0.1v7.6
				c0,0.1,0.1,0.1,0.1,0.1H195z"/>
			<path class="st0" d="M212.6,188.6V201c0,2.6-1.7,3.9-4.1,3.9h-1c-2.4,0-4.1-1.3-4.1-3.9v-12.3c0-2.6,1.7-3.9,4.1-3.9h1
				C211,184.8,212.6,186.1,212.6,188.6z M211.5,188.2c0-1.7-1.2-2.4-2.6-2.4h-1.6c-1.4,0-2.6,0.7-2.6,2.4v13.2
				c0,1.7,1.2,2.4,2.6,2.4h1.6c1.4,0,2.6-0.7,2.6-2.4V188.2z"/>
			<path class="st0" d="M218.3,204.7c-0.1,0-0.2-0.1-0.2-0.2v-19.3c0-0.1,0.1-0.2,0.2-0.2h0.7c0.1,0,0.2,0.1,0.2,0.2v18.4
				c0,0.1,0,0.1,0.1,0.1h7.2c0.1,0,0.2,0.1,0.2,0.2v0.6c0,0.1-0.1,0.2-0.2,0.2H218.3z"/>
			<path class="st0" d="M229.8,200.7c-0.1,0-0.2,0-0.2,0.1l-0.7,3.7c0,0.1-0.1,0.2-0.3,0.2H228c-0.2,0-0.3-0.1-0.2-0.3l3.8-19.3
				c0-0.1,0.1-0.2,0.3-0.2h1.5c0.2,0,0.2,0,0.3,0.2l3.8,19.3c0,0.1,0,0.3-0.2,0.3h-0.7c-0.2,0-0.3-0.1-0.3-0.2l-0.7-3.7
				c0-0.1-0.1-0.1-0.2-0.1H229.8z M235,199.6c0.1,0,0.2,0,0.1-0.1l-2.5-13.2c0-0.1-0.1-0.1-0.1-0.1c-0.1,0-0.1,0-0.1,0.1l-2.5,13.2
				c0,0.1,0,0.1,0.1,0.1H235z"/>
		</g>
		<g>
			<path class="st0" d="M124.7,234.8h-0.7c-0.1,0-0.2-0.1-0.2-0.2v-19.3c0-0.1,0.1-0.2,0.2-0.2h0.7c0.1,0,0.2,0.1,0.2,0.2v19.3
				C125,234.7,124.9,234.8,124.7,234.8z"/>
			<path class="st0" d="M143.7,215.3v0.4c0,0.6-0.1,1.1-0.3,1.6l-7.5,16.3c0,0.1,0,0.1,0,0.1c0,0.1,0,0.1,0.1,0.1h7.6
				c0.1,0,0.2,0.1,0.2,0.2v0.6c0,0.1-0.1,0.2-0.2,0.2h-8.5c-0.1,0-0.2-0.1-0.2-0.2v-0.4c0-0.4,0-0.8,0.3-1.4l7.6-16.5
				c0,0,0-0.1,0-0.1c0-0.1,0-0.1-0.1-0.1h-7.2c-0.1,0-0.2-0.1-0.2-0.2v-0.6c0-0.1,0.1-0.2,0.2-0.2h8.1
				C143.6,215,143.7,215.1,143.7,215.3z"/>
			<path class="st0" d="M154.8,234.8c-0.1,0-0.2-0.1-0.2-0.2l-6.2-17.1c0-0.1,0-0.1-0.1-0.1c0,0-0.1,0-0.1,0.1v17.1
				c0,0.1-0.1,0.2-0.2,0.2h-0.7c-0.1,0-0.2-0.1-0.2-0.2v-19.3c0-0.1,0.1-0.2,0.2-0.2h1.2c0.1,0,0.2,0.1,0.3,0.2l6.2,17
				c0,0.1,0.1,0.1,0.2,0.1c0,0,0.1,0,0.1-0.1v-17c0-0.1,0.1-0.2,0.2-0.2h0.7c0.1,0,0.2,0.1,0.2,0.2v19.3c0,0.1-0.1,0.2-0.2,0.2
				H154.8z"/>
			<path class="st0" d="M162.1,230.8c-0.1,0-0.2,0-0.2,0.1l-0.7,3.7c0,0.1-0.1,0.2-0.3,0.2h-0.7c-0.2,0-0.3-0.1-0.2-0.3l3.8-19.3
				c0-0.1,0.1-0.2,0.3-0.2h1.5c0.2,0,0.2,0,0.3,0.2l3.8,19.3c0,0.1,0,0.3-0.2,0.3h-0.7c-0.2,0-0.3-0.1-0.3-0.2l-0.7-3.7
				c0-0.1-0.1-0.1-0.2-0.1H162.1z M167.3,229.8c0.1,0,0.2,0,0.1-0.1l-2.5-13.1c0-0.1-0.1-0.1-0.1-0.1c0,0-0.1,0-0.1,0.1l-2.5,13.1
				c0,0.1,0,0.1,0.1,0.1H167.3z"/>
			<path class="st0" d="M181.6,227.7c0-0.1,0.1-0.2,0.2-0.2h0.7c0.1,0,0.2,0.1,0.2,0.2v3.4c0,2.6-1.6,3.9-4.1,3.9h-1
				c-2.4,0-4.1-1.3-4.1-3.9v-12.3c0-2.6,1.7-3.9,4.1-3.9h1c2.4,0,4.1,1.3,4.1,3.9v2.5c0,0.1-0.1,0.2-0.2,0.2h-0.7
				c-0.1,0-0.2-0.1-0.2-0.2v-2.9c0-1.7-1.2-2.4-2.6-2.4h-1.6c-1.4,0-2.6,0.7-2.6,2.4v13.2c0,1.7,1.2,2.4,2.6,2.4h1.7
				c1.4,0,2.6-0.7,2.6-2.4V227.7z"/>
			<path class="st0" d="M193.9,215.3v0.4c0,0.6-0.1,1.1-0.3,1.6l-7.5,16.3c0,0.1,0,0.1,0,0.1c0,0.1,0,0.1,0.1,0.1h7.5
				c0.1,0,0.2,0.1,0.2,0.2v0.6c0,0.1-0.1,0.2-0.2,0.2h-8.5c-0.1,0-0.2-0.1-0.2-0.2v-0.4c0-0.4,0-0.8,0.3-1.4l7.6-16.5
				c0,0,0-0.1,0-0.1c0-0.1,0-0.1-0.1-0.1h-7.2c-0.1,0-0.2-0.1-0.2-0.2v-0.6c0-0.1,0.1-0.2,0.2-0.2h8.1
				C193.8,215,193.9,215.1,193.9,215.3z"/>
			<path class="st0" d="M198.3,216.2v7.5c0,0.1,0,0.1,0.1,0.1h6.3c0.1,0,0.2,0.1,0.2,0.2v0.6c0,0.1-0.1,0.2-0.2,0.2h-6.3
				c-0.1,0-0.1,0-0.1,0.1v8.5c0,0.1,0,0.1,0.1,0.1h7.2c0.1,0,0.2,0.1,0.2,0.2v0.6c0,0.1-0.1,0.2-0.3,0.2h-8.1
				c-0.1,0-0.2-0.1-0.2-0.2v-19.3c0-0.1,0.1-0.2,0.2-0.2h8.2c0.1,0,0.2,0.1,0.2,0.2v0.6c0,0.1-0.1,0.2-0.2,0.2h-7.2
				C198.4,216.1,198.3,216.2,198.3,216.2z"/>
			<path class="st0" d="M216.5,234.8c-0.1,0-0.2-0.1-0.2-0.2l-6.2-17.1c0-0.1,0-0.1-0.1-0.1c-0.1,0-0.1,0-0.1,0.1v17.1
				c0,0.1-0.1,0.2-0.2,0.2h-0.7c-0.1,0-0.2-0.1-0.2-0.2v-19.3c0-0.1,0.1-0.2,0.2-0.2h1.1c0.1,0,0.2,0.1,0.3,0.2l6.2,17
				c0,0.1,0.1,0.1,0.1,0.1c0,0,0.1,0,0.1-0.1v-17c0-0.1,0.1-0.2,0.2-0.2h0.7c0.1,0,0.2,0.1,0.2,0.2v19.3c0,0.1-0.1,0.2-0.2,0.2
				H216.5z"/>
			<path class="st0" d="M224.1,234.8h-0.7c-0.1,0-0.2-0.1-0.2-0.2v-19.3c0-0.1,0.1-0.2,0.2-0.2h0.7c0.1,0,0.2,0.1,0.2,0.2v19.3
				C224.4,234.7,224.3,234.8,224.1,234.8z"/>
			<path class="st0" d="M230.9,216.2v7.5c0,0.1,0,0.1,0.1,0.1h6.3c0.1,0,0.2,0.1,0.2,0.2v0.6c0,0.1-0.1,0.2-0.2,0.2H231
				c-0.1,0-0.1,0-0.1,0.1v8.5c0,0.1,0,0.1,0.1,0.1h7.2c0.1,0,0.2,0.1,0.2,0.2v0.6c0,0.1-0.1,0.2-0.3,0.2H230c-0.1,0-0.2-0.1-0.2-0.2
				v-19.3c0-0.1,0.1-0.2,0.2-0.2h8.2c0.1,0,0.2,0.1,0.2,0.2v0.6c0,0.1-0.1,0.2-0.2,0.2H231C230.9,216.1,230.9,216.2,230.9,216.2z"/>
		</g>
	</g>
</g>
</svg>
